<svg xmlns="http://www.w3.org/2000/svg" version="1.1" viewBox="-10 -40 580 240" height="100" width="250"> 
  <g >
    <g transform="scale(1.0386849911552591)" >
      <g
        transform="translate(0, 2.842170943040401e-14) scale(1)"
        light-content="false"
        fill="#ffffff"
      >
        <path
          d="M0 0 h 547.6154992548435 v 140.32435036921663 h -547.6154992548435 Z"
        ></path>
      </g>
      <g
        transform="translate(0, 0) scale(1)"
        light-content="true"
        fill="#225378"
      >
        <path
          d="M0 0 h 547.6154992548435 v 8 h -547.6154992548435 Z M0 0 h 8 v 140.3243503692167 h -8 Z M547.6154992548435 140.3243503692167 h -547.6154992548435 v -8 h 547.6154992548435 Z M547.6154992548435 140.3243503692167 h -8 v -140.3243503692167 h 8 Z"
          fill-rule="nonzero"
        ></path>
      </g>
      <g
        transform="translate(17.086976009322925, 13.308476216325829) scale(1.1297908223817623)"
        light-content="true"
        non-strokable="false"
        fill="#225378"
      >
        <path
          d="M24 0h76v76c0 13.255-10.745 24-24 24H0V24C0 10.745 10.745 0 24 0z"
        ></path>
      </g>
      <g
        transform="translate(39.43145704913045, 35.65308620618299) scale(0.6828986225846186)"
        light-content="false"
        non-strokable="false"
        fill="#ffffff"
      >
        <path
          d="M92.726 17.19c-3.03-5.25-8.46-8.385-14.523-8.385H21.797c-6.063 0-11.492 3.135-14.523 8.385s-3.032 11.52 0 16.77l28.202 48.85c3.032 5.25 8.461 8.385 14.524 8.385 6.063 0 11.493-3.135 14.523-8.385l28.203-48.85c3.032-5.25 3.032-11.519 0-16.77zm-82.438 1.74c2.402-4.16 6.705-6.645 11.509-6.645h31.046c4.398 0 8.195 2.207 10.417 6.055 2.333 4.04 2.32 9.08-.016 13.128l-.6 1H36.153l-.02.033-2.13-.033c-5.736 0-10.866 2.954-13.722 7.901a16.149 16.149 0 0 0-1.995 5.705l-7.998-13.853c-2.403-4.162-2.403-9.13 0-13.29zm39.604 35.593L39.167 35.948h21.449L49.892 54.523zM61.509 81.07c-2.402 4.16-6.704 6.645-11.509 6.645-4.804 0-9.107-2.484-11.51-6.645L23.336 54.82c-2.311-4.001-2.326-8.753-.041-12.71 2.227-3.859 6.23-6.162 10.68-6.162l1.184.019 13.212 22.882 1.058 1.905c2.904 5.029 8.104 8.031 13.91 8.031a16.18 16.18 0 0 0 5.902-1.107L61.509 81.07zm28.203-48.85l-15.47 26.797-.006-.003c-2.274 3.94-6.348 6.291-10.896 6.291s-8.623-2.352-10.882-6.267l-.566-1.019 13.245-22.941 1.106-1.846c2.972-5.145 2.983-11.518.031-16.632a15.778 15.778 0 0 0-3.654-4.315h15.583c4.805 0 9.108 2.484 11.51 6.646 2.402 4.16 2.402 9.129 0 13.29z"
        ></path>
      </g>
      <g
        transform="translate(333.56898422486404, 82.29108079807298) scale(1)"
        light-content="true"
        fill="#225378"
      >
        <path
          d="M-157.09 7.16C-157.47 7.16 -157.91 7.48 -158.4 8.13C-159.78 10.04 -161.53 10.99 -163.67 10.99C-164.59 10.99 -165.66 10.73 -166.9 10.22C-168.14 9.7 -169.87 8.89 -172.08 7.79L-173.34 7.16C-175.48 6.05 -177.39 5.18 -179.07 4.55C-180.75 3.92 -182.22 3.61 -183.48 3.61L-184.05 3.61C-182.18 2.92 -180.49 2.18 -178.98 1.4C-177.48 0.62 -175.71 -0.4 -173.69 -1.66C-169.26 -4.41 -165.77 -7.65 -163.21 -11.39C-160.65 -15.13 -159.38 -19.12 -159.38 -23.36C-159.38 -26.18 -159.96 -28.71 -161.12 -30.94C-162.29 -33.17 -163.91 -34.91 -165.99 -36.15C-168.07 -37.39 -170.41 -38.01 -173 -38.01C-177.35 -38.01 -181.33 -36.88 -184.94 -34.61C-188.54 -32.34 -191.39 -29.34 -193.47 -25.62C-195.55 -21.9 -196.59 -17.98 -196.59 -13.85C-196.59 -11.07 -196.03 -8.59 -194.93 -6.41C-193.82 -4.24 -192.26 -2.51 -190.26 -1.23C-188.26 0.05 -186 0.73 -183.48 0.8L-183.71 0.92C-184.62 1.37 -186.4 2.14 -189.03 3.21C-192.08 4.39 -194.38 5.37 -195.93 6.15C-197.47 6.94 -198.25 7.65 -198.25 8.3C-198.25 8.61 -198.16 8.84 -197.99 9.02C-197.82 9.19 -197.58 9.27 -197.27 9.27C-196.97 9.27 -196.43 9.06 -195.67 8.64L-194.58 8.13C-193.71 7.79 -192.64 7.61 -191.38 7.61C-189.96 7.61 -188.45 7.95 -186.83 8.62C-185.2 9.28 -183.15 10.29 -180.67 11.62C-177.62 13.22 -175.14 14.42 -173.23 15.2C-171.32 15.98 -169.41 16.37 -167.5 16.37C-166.05 16.37 -164.57 15.97 -163.04 15.17C-161.51 14.37 -160.16 13.37 -158.98 12.17C-157.79 10.96 -156.99 9.83 -156.57 8.76C-156.46 8.53 -156.4 8.28 -156.4 8.01C-156.4 7.79 -156.46 7.59 -156.57 7.41C-156.69 7.24 -156.86 7.16 -157.09 7.16ZM-180.16 -1.26L-180.96 -1.26C-183.78 -1.3 -185.78 -2.16 -186.94 -3.84C-188.1 -5.51 -188.69 -7.69 -188.69 -10.36C-188.69 -13.8 -187.95 -17.51 -186.48 -21.5C-185.01 -25.48 -183.08 -28.84 -180.67 -31.57C-178.27 -34.3 -175.77 -35.66 -173.17 -35.66C-169.28 -35.66 -167.33 -32.71 -167.33 -26.79C-167.33 -21.56 -168.37 -16.77 -170.45 -12.42C-172.53 -8.07 -175.77 -4.35 -180.16 -1.26Z M-150.5 -0.4C-150.5 0.06 -150.2 0.29 -149.59 0.29C-148.79 0.29 -147.43 0.25 -145.52 0.17C-144.07 0.06 -142.74 0 -141.51 0C-141.17 0 -136.71 0.06 -128.12 0.17L-121.25 0.29C-120.94 0.29 -120.7 0.2 -120.51 0.03C-120.31 -0.14 -120.12 -0.4 -119.93 -0.74C-119.25 -1.74 -118.49 -3.3 -117.67 -5.44C-116.85 -7.58 -116.44 -9.16 -116.44 -10.19C-116.44 -10.46 -116.5 -10.7 -116.61 -10.91C-116.73 -11.12 -116.88 -11.22 -117.07 -11.22C-117.57 -11.22 -117.97 -10.88 -118.27 -10.19C-119.65 -7.52 -121.21 -5.53 -122.97 -4.24C-125.03 -2.86 -127.58 -2.18 -130.64 -2.18L-132.7 -2.18C-133.5 -2.18 -134.09 -2.36 -134.47 -2.72C-134.86 -3.08 -135.05 -3.68 -135.05 -4.52C-135.05 -5.51 -134.8 -6.81 -134.3 -8.42L-127.2 -31.66C-126.86 -32.8 -126.35 -33.61 -125.69 -34.09C-125.02 -34.57 -123.83 -35.02 -122.11 -35.44C-121.65 -35.59 -121.3 -35.74 -121.05 -35.89C-120.8 -36.05 -120.64 -36.29 -120.56 -36.64C-120.37 -37.17 -120.62 -37.44 -121.31 -37.44C-122.15 -37.44 -123.63 -37.4 -125.77 -37.33C-127.76 -37.25 -129.13 -37.21 -129.89 -37.21C-130.66 -37.21 -131.92 -37.25 -133.67 -37.33C-135.16 -37.44 -136.59 -37.5 -137.97 -37.5C-138.23 -37.5 -138.51 -37.41 -138.8 -37.24C-139.08 -37.07 -139.24 -36.87 -139.28 -36.64C-139.47 -35.99 -139.21 -35.59 -138.48 -35.44C-137.41 -35.13 -136.68 -34.83 -136.28 -34.55C-135.88 -34.26 -135.68 -33.85 -135.68 -33.32C-135.68 -32.97 -135.77 -32.42 -135.96 -31.66L-144.03 -5.5C-144.42 -4.35 -144.94 -3.55 -145.61 -3.09C-146.28 -2.63 -147.37 -2.19 -148.9 -1.77C-149.4 -1.62 -149.79 -1.41 -150.07 -1.14C-150.36 -0.88 -150.5 -0.63 -150.5 -0.4Z M-105.94 -0.06C-105.76 0.1 -105.53 0.17 -105.22 0.17C-103.81 0.17 -102.36 0.11 -100.87 0C-98.96 -0.08 -97.63 -0.11 -96.86 -0.11C-96.18 -0.11 -94.76 -0.08 -92.63 0C-90.95 0.11 -89.4 0.17 -87.99 0.17C-87.26 0.17 -86.84 -0.11 -86.73 -0.69C-86.61 -1.03 -86.67 -1.3 -86.9 -1.49C-87.13 -1.68 -87.66 -1.87 -88.5 -2.06C-89.38 -2.29 -89.99 -2.55 -90.34 -2.83C-90.68 -3.12 -90.85 -3.57 -90.85 -4.18C-90.85 -4.98 -90.6 -6.14 -90.11 -7.67L-82.78 -31.49C-82.44 -32.67 -81.95 -33.51 -81.32 -34C-80.69 -34.5 -79.54 -34.98 -77.86 -35.44C-77.36 -35.55 -76.99 -35.69 -76.74 -35.87C-76.49 -36.04 -76.33 -36.29 -76.25 -36.64C-76.06 -37.17 -76.31 -37.44 -77 -37.44C-77.91 -37.44 -79.4 -37.4 -81.46 -37.33C-83.37 -37.25 -84.69 -37.21 -85.41 -37.21C-86.14 -37.21 -87.42 -37.25 -89.25 -37.33C-90.66 -37.44 -92.07 -37.5 -93.48 -37.5C-93.79 -37.5 -94.09 -37.41 -94.37 -37.24C-94.66 -37.07 -94.82 -36.87 -94.86 -36.64C-95.09 -36.03 -94.82 -35.63 -94.06 -35.44C-92.99 -35.13 -92.24 -34.83 -91.82 -34.52C-91.4 -34.21 -91.19 -33.78 -91.19 -33.2C-91.19 -32.86 -91.29 -32.31 -91.48 -31.54L-99.55 -5.55C-99.9 -4.41 -100.41 -3.59 -101.1 -3.09C-101.79 -2.6 -102.93 -2.18 -104.53 -1.83C-105.41 -1.64 -105.93 -1.24 -106.08 -0.63C-106.16 -0.4 -106.11 -0.21 -105.94 -0.06Z M-72.68 0.06C-72.39 0.25 -72.05 0.34 -71.67 0.34C-70.18 0.34 -68.56 0.23 -66.81 0C-65.43 -0.15 -64.42 -0.23 -63.77 -0.23C-63.16 -0.23 -62.61 -0.21 -62.11 -0.17C-61.62 -0.13 -61.2 -0.1 -60.85 -0.06C-59.44 0.13 -57.88 0.23 -56.16 0.23C-55.7 0.23 -55.26 0.13 -54.84 -0.06C-54.42 -0.25 -54.21 -0.5 -54.21 -0.8C-54.21 -1.07 -54.31 -1.27 -54.5 -1.4C-54.69 -1.54 -55 -1.68 -55.42 -1.83C-56.37 -2.14 -57.03 -2.44 -57.39 -2.75C-57.75 -3.05 -57.93 -3.47 -57.93 -4.01C-57.93 -4.47 -57.82 -5.04 -57.59 -5.72L-54.1 -17.69C-53.98 -18.15 -53.76 -18.38 -53.41 -18.38C-53.18 -18.38 -52.91 -18.2 -52.58 -17.86C-52.26 -17.52 -51.94 -17.02 -51.64 -16.37L-46.31 -5.5C-45.93 -4.58 -45.74 -3.89 -45.74 -3.43C-45.74 -2.71 -46.18 -2.25 -47.06 -2.06C-48.28 -1.83 -48.89 -1.39 -48.89 -0.74C-48.89 -0.52 -48.76 -0.31 -48.49 -0.14C-48.22 0.03 -47.92 0.11 -47.57 0.11C-46.69 0.11 -45.49 0.08 -43.97 0L-40.53 -0.06C-38.97 -0.06 -37.54 0 -36.24 0.11C-35.78 0.11 -35.1 0.14 -34.21 0.2C-33.31 0.26 -32.46 0.29 -31.66 0.29C-30.25 0.29 -29.54 -0.06 -29.54 -0.74C-29.54 -1.05 -29.7 -1.29 -30.03 -1.46C-30.35 -1.63 -30.82 -1.83 -31.43 -2.06C-32.46 -2.44 -33.36 -2.87 -34.12 -3.35C-34.88 -3.83 -35.63 -4.48 -36.35 -5.32C-39.18 -8.45 -42.15 -13.3 -45.28 -19.86C-45.4 -20.06 -45.45 -20.25 -45.45 -20.44C-45.45 -20.7 -45.24 -21.09 -44.82 -21.58C-41.77 -24.52 -37.78 -27.96 -32.86 -31.89C-31.52 -32.96 -30.14 -33.78 -28.71 -34.35C-27.28 -34.92 -25.59 -35.28 -23.64 -35.44C-23.15 -35.51 -22.68 -35.66 -22.24 -35.87C-21.8 -36.08 -21.58 -36.33 -21.58 -36.64C-21.58 -37.17 -21.98 -37.44 -22.78 -37.44C-24.31 -37.44 -26.3 -37.4 -28.74 -37.33L-34.06 -37.27L-38.36 -37.27C-38.78 -37.27 -39.13 -37.18 -39.41 -37.01C-39.7 -36.84 -39.84 -36.6 -39.84 -36.29C-39.84 -35.99 -39.75 -35.75 -39.56 -35.58C-39.37 -35.41 -39.04 -35.26 -38.58 -35.15C-38.01 -35.04 -37.52 -34.84 -37.1 -34.58C-36.68 -34.31 -36.47 -34.02 -36.47 -33.72C-36.47 -33.45 -36.59 -33.17 -36.84 -32.86C-37.09 -32.55 -37.5 -32.12 -38.07 -31.54L-47.17 -22.96C-48.97 -21.16 -50.61 -20.27 -52.09 -20.27C-52.44 -20.27 -52.68 -20.3 -52.81 -20.38C-52.94 -20.46 -53.01 -20.59 -53.01 -20.78C-53.01 -20.93 -52.99 -21.07 -52.95 -21.18L-49.75 -31.49C-49.4 -32.71 -48.94 -33.57 -48.35 -34.06C-47.75 -34.56 -46.64 -35.02 -45 -35.44C-44.46 -35.59 -44.04 -35.76 -43.74 -35.95C-43.43 -36.14 -43.28 -36.43 -43.28 -36.81C-43.28 -37.23 -43.58 -37.44 -44.19 -37.44C-45.07 -37.44 -46.54 -37.4 -48.6 -37.33C-50.51 -37.25 -51.79 -37.21 -52.44 -37.21C-53.7 -37.21 -55.01 -37.27 -56.39 -37.38C-58.14 -37.46 -59.37 -37.5 -60.05 -37.5C-60.59 -37.5 -61.03 -37.38 -61.4 -37.15C-61.76 -36.92 -61.94 -36.66 -61.94 -36.35C-61.94 -35.86 -61.64 -35.55 -61.03 -35.44C-59.99 -35.17 -59.27 -34.87 -58.85 -34.55C-58.43 -34.22 -58.22 -33.78 -58.22 -33.2C-58.22 -32.86 -58.32 -32.31 -58.51 -31.54L-66.52 -5.61C-66.9 -4.39 -67.4 -3.52 -68.01 -3.01C-68.62 -2.49 -69.67 -2.1 -71.16 -1.83C-72.19 -1.68 -72.82 -1.28 -73.05 -0.63C-73.09 -0.36 -72.96 -0.13 -72.68 0.06Z M-7.38 -2.35C-7.38 -0.13 -6.6 0.97 -5.04 0.97C-4.05 0.97 -1.13 -1.81 3.72 -7.38L24.44 -30.97C26.54 -33.38 28.76 -34.88 31.09 -35.49C31.28 -35.57 31.55 -35.66 31.92 -35.75C32.28 -35.85 32.59 -35.96 32.86 -36.09C33.13 -36.23 33.26 -36.43 33.26 -36.7C33.26 -36.96 33.09 -37.18 32.75 -37.35C32.4 -37.53 32 -37.61 31.54 -37.61C31.01 -37.61 30.44 -37.58 29.83 -37.53C29.22 -37.47 28.76 -37.44 28.45 -37.44C27.54 -37.33 26.54 -37.27 25.47 -37.27C24.71 -37.27 23.72 -37.31 22.5 -37.38L19.52 -37.44C19.1 -37.44 18.69 -37.36 18.29 -37.21C17.89 -37.06 17.67 -36.87 17.63 -36.64C17.56 -36.33 17.64 -36.08 17.89 -35.87C18.14 -35.66 18.49 -35.51 18.95 -35.44C20.28 -34.98 20.95 -34.23 20.95 -33.2C20.95 -31.75 19.77 -29.63 17.4 -26.85L3.15 -9.79C3 -9.64 2.87 -9.48 2.78 -9.33C2.68 -9.18 2.6 -9.1 2.52 -9.1C2.4 -9.1 2.34 -9.16 2.32 -9.27C2.3 -9.39 2.31 -9.54 2.35 -9.73L6.41 -31.77C6.64 -32.96 7.02 -33.79 7.56 -34.26C8.09 -34.74 9.05 -35.13 10.42 -35.44C10.88 -35.51 11.31 -35.66 11.71 -35.87C12.11 -36.08 12.35 -36.33 12.42 -36.64C12.46 -36.87 12.36 -37.06 12.11 -37.21C11.86 -37.36 11.54 -37.44 11.16 -37.44C10.36 -37.44 8.93 -37.4 6.87 -37.33C4.81 -37.25 3.42 -37.21 2.69 -37.21C1.93 -37.21 0.59 -37.25 -1.32 -37.33C-3.15 -37.4 -4.45 -37.44 -5.21 -37.44C-6.47 -37.44 -7.1 -37.15 -7.1 -36.58C-7.1 -36.35 -7.02 -36.16 -6.87 -36.01C-6.72 -35.86 -6.44 -35.71 -6.04 -35.58C-5.64 -35.45 -5.34 -35.34 -5.15 -35.26C-4.31 -35.04 -3.71 -34.71 -3.35 -34.29C-2.99 -33.87 -2.81 -33.26 -2.81 -32.46C-2.81 -32.12 -2.82 -31.85 -2.86 -31.66C-3.63 -24.64 -4.96 -16.2 -6.87 -6.35C-7.21 -4.48 -7.38 -3.15 -7.38 -2.35Z M35.24 -0.06C35.41 0.1 35.65 0.17 35.95 0.17C37.36 0.17 38.81 0.11 40.3 0C42.21 -0.08 43.55 -0.11 44.31 -0.11C45 -0.11 46.41 -0.08 48.55 0C50.22 0.11 51.77 0.17 53.18 0.17C53.91 0.17 54.33 -0.11 54.44 -0.69C54.56 -1.03 54.5 -1.3 54.27 -1.49C54.04 -1.68 53.51 -1.87 52.67 -2.06C51.79 -2.29 51.18 -2.55 50.84 -2.83C50.49 -3.12 50.32 -3.57 50.32 -4.18C50.32 -4.98 50.57 -6.14 51.06 -7.67L58.39 -31.49C58.74 -32.67 59.22 -33.51 59.85 -34C60.48 -34.5 61.64 -34.98 63.32 -35.44C63.81 -35.55 64.18 -35.69 64.43 -35.87C64.68 -36.04 64.84 -36.29 64.92 -36.64C65.11 -37.17 64.86 -37.44 64.17 -37.44C63.26 -37.44 61.77 -37.4 59.71 -37.33C57.8 -37.25 56.48 -37.21 55.76 -37.21C55.03 -37.21 53.76 -37.25 51.92 -37.33C50.51 -37.44 49.1 -37.5 47.69 -37.5C47.38 -37.5 47.09 -37.41 46.8 -37.24C46.51 -37.07 46.35 -36.87 46.31 -36.64C46.08 -36.03 46.35 -35.63 47.11 -35.44C48.18 -35.13 48.93 -34.83 49.35 -34.52C49.77 -34.21 49.98 -33.78 49.98 -33.2C49.98 -32.86 49.88 -32.31 49.69 -31.54L41.62 -5.55C41.28 -4.41 40.76 -3.59 40.07 -3.09C39.39 -2.6 38.24 -2.18 36.64 -1.83C35.76 -1.64 35.25 -1.24 35.09 -0.63C35.02 -0.4 35.06 -0.21 35.24 -0.06Z M75.8 -0.34C77.67 0.42 80.09 0.8 83.07 0.8C85.93 0.8 88.45 0.23 90.62 -0.92C92.8 -2.06 94.47 -3.56 95.63 -5.41C96.8 -7.26 97.38 -9.2 97.38 -11.22C97.38 -13.17 96.94 -14.94 96.06 -16.54C95.18 -18.15 93.64 -19.88 91.42 -21.75C89.86 -23.09 88.69 -24.17 87.93 -24.99C87.17 -25.81 86.63 -26.58 86.33 -27.31C86.02 -28.03 85.87 -28.87 85.87 -29.83C85.87 -31.39 86.41 -32.78 87.5 -34C88.59 -35.23 90.11 -35.84 92.05 -35.84C94.08 -35.84 95.71 -35.09 96.95 -33.6C98.19 -32.12 98.81 -30.13 98.81 -27.65C98.81 -26.85 98.88 -26.26 99.04 -25.88C99.19 -25.49 99.46 -25.3 99.84 -25.3C100.45 -25.3 100.89 -25.78 101.16 -26.73C101.58 -28.38 102.16 -30.07 102.9 -31.83C103.65 -33.58 104.34 -34.9 104.99 -35.78C105.14 -35.97 105.22 -36.2 105.22 -36.47C105.22 -36.85 104.97 -37.04 104.48 -37.04C104.06 -37.04 103.54 -36.87 102.93 -36.52C102.51 -36.29 102.03 -36.18 101.5 -36.18C100.96 -36.18 100.34 -36.29 99.61 -36.52C98.88 -36.75 98.45 -36.89 98.29 -36.92C96.04 -37.65 93.89 -38.01 91.82 -38.01C89.23 -38.01 86.89 -37.53 84.81 -36.55C82.73 -35.58 81.11 -34.23 79.95 -32.52C78.78 -30.8 78.2 -28.89 78.2 -26.79C78.2 -24.62 78.64 -22.74 79.52 -21.15C80.39 -19.57 81.83 -17.92 83.81 -16.2C86.1 -14.14 87.62 -12.57 88.36 -11.48C89.11 -10.39 89.48 -9.2 89.48 -7.9C89.48 -6.03 88.83 -4.49 87.53 -3.29C86.23 -2.09 84.46 -1.49 82.21 -1.49C79.96 -1.49 78.22 -2.22 77 -3.69C75.78 -5.16 75.17 -6.93 75.17 -8.99C75.17 -10.36 75.11 -11.31 74.99 -11.82C74.88 -12.34 74.57 -12.59 74.08 -12.59C73.62 -12.59 73.29 -12.45 73.08 -12.17C72.87 -11.88 72.7 -11.39 72.59 -10.71C72.32 -8.76 71.56 -6.3 70.3 -3.32C69.84 -2.21 69.61 -1.55 69.61 -1.32C69.61 -1.05 69.77 -0.76 70.1 -0.46C70.42 -0.15 70.7 0 70.93 0C71.08 0 71.54 -0.23 72.3 -0.69C72.91 -0.95 73.39 -1.09 73.73 -1.09C73.93 -1.09 74.61 -0.84 75.8 -0.34Z M118.82 -0.06C119.03 0.1 119.28 0.17 119.59 0.17C121.04 0.17 122.53 0.11 124.05 0C126.04 -0.08 127.41 -0.11 128.18 -0.11C128.86 -0.11 130.24 -0.08 132.3 0C133.86 0.11 135.35 0.17 136.76 0.17C137.11 0.17 137.41 0.1 137.68 -0.06C137.95 -0.21 138.1 -0.42 138.14 -0.69C138.21 -0.99 138.17 -1.23 137.99 -1.4C137.82 -1.57 137.55 -1.72 137.16 -1.83C136.06 -2.18 135.26 -2.53 134.76 -2.89C134.26 -3.25 134.02 -3.76 134.02 -4.41C134.02 -4.83 134.09 -5.25 134.24 -5.67L141.74 -30.05C142.2 -31.5 142.59 -32.57 142.92 -33.26C143.24 -33.95 143.59 -34.42 143.98 -34.69C144.36 -34.96 144.85 -35.09 145.46 -35.09L148.33 -35.09C149.85 -35.09 150.93 -34.7 151.56 -33.92C152.19 -33.14 152.54 -31.92 152.62 -30.28C152.62 -29.56 152.7 -29.03 152.85 -28.71C153 -28.39 153.25 -28.22 153.59 -28.22C153.9 -28.22 154.17 -28.38 154.4 -28.68C154.62 -28.99 154.83 -29.46 155.03 -30.11C155.79 -32.67 156.89 -35.17 158.35 -37.61C158.57 -38.03 158.73 -38.43 158.8 -38.81C158.99 -39.39 158.84 -39.67 158.35 -39.67C158.08 -39.67 157.77 -39.57 157.43 -39.36C157.09 -39.15 156.88 -39.02 156.8 -38.99C156.11 -38.53 155.56 -38.22 155.14 -38.07C154.64 -37.8 153.96 -37.58 153.08 -37.41C152.2 -37.24 150.73 -37.15 148.67 -37.15L132.81 -37.15C131.63 -37.15 130.65 -37.21 129.86 -37.33C129.08 -37.44 128.49 -37.63 128.09 -37.9C127.69 -38.16 127.45 -38.32 127.37 -38.36C127.22 -38.47 126.9 -38.73 126.4 -39.13C125.91 -39.53 125.45 -39.73 125.03 -39.73C124.34 -39.73 123.83 -39.25 123.48 -38.3C122.91 -36.81 122.33 -35.53 121.74 -34.46C121.14 -33.39 120.33 -32.25 119.3 -31.03C118.96 -30.61 118.69 -30.09 118.5 -29.48C118.46 -29.14 118.48 -28.88 118.56 -28.71C118.64 -28.54 118.81 -28.45 119.07 -28.45C119.42 -28.45 119.86 -28.64 120.39 -29.02C120.92 -29.41 121.47 -29.88 122.02 -30.46C122.58 -31.03 122.91 -31.37 123.02 -31.49C124.02 -32.52 125.15 -33.38 126.43 -34.06C127.71 -34.75 128.98 -35.09 130.24 -35.09L132.93 -35.09C133.27 -35.09 133.53 -35.02 133.7 -34.86C133.87 -34.71 133.96 -34.44 133.96 -34.06C133.96 -33.38 133.65 -32 133.04 -29.94L125.54 -5.61C125.2 -4.47 124.65 -3.64 123.88 -3.12C123.12 -2.6 121.94 -2.18 120.33 -1.83C119.3 -1.64 118.71 -1.24 118.56 -0.63C118.52 -0.4 118.61 -0.21 118.82 -0.06Z M153.68 0.11C153.89 0.23 154.22 0.29 154.68 0.29C155.94 0.29 157.22 0.23 158.52 0.11C159.01 0.08 159.59 0.04 160.23 0C160.88 -0.04 161.59 -0.06 162.35 -0.06C163.12 -0.06 164.22 -0.02 165.67 0.06L168.94 0.11C169.39 0.11 169.8 0.04 170.17 -0.11C170.53 -0.27 170.73 -0.46 170.77 -0.69C170.77 -1.3 170.29 -1.72 169.34 -1.95C167.58 -2.37 166.7 -3.11 166.7 -4.18C166.7 -5.06 167.28 -6.2 168.42 -7.61L172.37 -12.71C172.87 -13.4 173.42 -13.74 174.03 -13.74L182.73 -13.74C183.38 -13.74 183.71 -13.49 183.71 -13L183.65 -12.65L181.93 -5.72C181.66 -4.58 181.17 -3.74 180.44 -3.21C179.72 -2.67 178.63 -2.25 177.18 -1.95C176.76 -1.87 176.4 -1.72 176.09 -1.49C175.79 -1.26 175.63 -0.99 175.63 -0.69C175.6 -0.42 175.68 -0.22 175.89 -0.09C176.1 0.05 176.38 0.11 176.72 0.11C177.45 0.11 178.88 0.08 181.02 0C183.08 -0.08 184.49 -0.11 185.25 -0.11C186.7 -0.11 188.23 -0.06 189.83 0.06C191.89 0.13 193.27 0.17 193.95 0.17C194.37 0.17 194.77 0.1 195.16 -0.06C195.54 -0.21 195.73 -0.42 195.73 -0.69C195.73 -1.03 195.61 -1.27 195.38 -1.4C195.16 -1.54 194.75 -1.68 194.18 -1.83C193 -2.18 192.13 -2.61 191.58 -3.15C191.02 -3.68 190.75 -4.41 190.75 -5.32C190.75 -5.51 190.79 -5.92 190.86 -6.53L196.53 -35.09C196.68 -36.01 196.76 -36.64 196.76 -36.98C196.76 -38.01 196.53 -38.53 196.07 -38.53C195.84 -38.53 195.58 -38.45 195.27 -38.3C194.96 -38.15 194.57 -37.92 194.1 -37.61C193.62 -37.31 193.27 -37.08 193.04 -36.92C191.74 -36.12 190.06 -35.72 188 -35.72C187.88 -35.72 187.76 -35.65 187.63 -35.49C187.49 -35.34 187.31 -35.09 187.08 -34.75L186.63 -34.06C185.9 -32.8 185.16 -31.73 184.39 -30.86L178.55 -24.1C173.21 -17.8 167.89 -11.68 162.58 -5.72C161.74 -4.81 160.62 -4.02 159.2 -3.35C157.79 -2.68 156.4 -2.19 155.03 -1.89C153.92 -1.7 153.36 -1.22 153.36 -0.46C153.36 -0.19 153.47 0 153.68 0.11ZM183.53 -16.32L176.66 -16.32C175.9 -16.32 175.52 -16.43 175.52 -16.66C175.52 -16.77 175.67 -17.02 175.98 -17.4L186.45 -30.23C186.76 -30.53 187.01 -30.68 187.2 -30.68C187.35 -30.68 187.43 -30.58 187.43 -30.37C187.43 -30.16 187.39 -29.92 187.31 -29.65L184.56 -17.12C184.53 -16.81 184.42 -16.6 184.25 -16.49C184.08 -16.37 183.84 -16.32 183.53 -16.32Z"
        ></path>
      </g>
    </g>
  </g>
</svg>
